# xmcd
#
# Track frame offsets: 
#        150
#        20242
#        41944
#        58946
#        73306
#        86807
#        101524
#        120122
#        131908
#        159205
#        182338
#        201050
#
# Disc length: 2910 seconds
#
# Revision: 1
# Processed by: cddbd v1.5.1PL2 Copyright (c) Steve Scherf et al.
# Submitted via: ExactAudioCopy v0.95a5
#
DISCID=a90b5c0c
DTITLE=Tshisungu Kalomba and Kassala (Zaire) - Mokumba
DYEAR=1999
DGENRE=African
TTITLE0=Dimba
TTITLE1=Wangay
TTITLE2=Uluhuala
TTITLE3=Safi
TTITLE4=Mokumba
TTITLE5=Ngala Baba
TTITLE6=Permis
TTITLE7=Molangwa
TTITLE8=Ditanta
TTITLE9=Love Me
TTITLE10=Dodo Payer
TTITLE11=Munanga
EXTD=
EXTT0=
EXTT1=
EXTT2=
EXTT3=
EXTT4=
EXTT5=
EXTT6=
EXTT7=
EXTT8=
EXTT9=
EXTT10=
EXTT11=
PLAYORDER=
